<?xml version="1.0" encoding="UTF-8" standalone="no"?>
<svg width="609.6mm" height="2767.54mm"
 viewBox="0 0 2304 10460"
 xmlns="http://www.w3.org/2000/svg" xmlns:xlink="http://www.w3.org/1999/xlink"  version="1.2" baseProfile="tiny">
<title>Valentina. Pattern layout</title>
<defs>
</defs>
<g fill="none" stroke="black" stroke-width="1" fill-rule="evenodd" stroke-linecap="square" stroke-linejoin="bevel" >

<g fill="none" stroke="#000000" stroke-opacity="1" stroke-width="1.51181" stroke-linecap="round" stroke-linejoin="round" transform="matrix(1,0,0,1,0,0)"
font-family="Arial" font-size="10.6667" font-weight="400" font-style="normal" 
>
</g>

<g fill="none" stroke="#000000" stroke-opacity="1" stroke-width="1.51181" stroke-linecap="round" stroke-linejoin="round" transform="matrix(1,0,0,1,0,0)"
font-family="Arial" font-size="10.6667" font-weight="400" font-style="normal" 
>
</g>

<g fill="none" stroke="#000000" stroke-opacity="1" stroke-width="1.51181" stroke-linecap="round" stroke-linejoin="round" transform="matrix(1,0,0,1,0,0)"
font-family="Arial" font-size="10.6667" font-weight="400" font-style="normal" 
>
</g>

<g fill="none" stroke="#000000" stroke-opacity="1" stroke-width="1" stroke-linecap="square" stroke-linejoin="bevel" transform="matrix(1,0,0,1,0,0)"
font-family="Arial" font-size="10.6667" font-weight="400" font-style="normal" 
>
<path vector-effect="none" fill-rule="nonzero" d="M944.2,3243 L944.2,1089 L761.2,1042 L987.2,164 L996.2,166 L1012.2,171 L1028.2,176 L1043.2,181 L1057.2,187 L1070.2,193 L1083.2,199 L1095.2,205 L1106.2,211 L1117.2,218 L1132.2,228 L1149.2,241 L1164.2,254 L1177.2,266 L1188.2,278 L1197.2,289 L1205.2,299 L1212.2,311 L1217.2,320 L1218.2,321 L1170.2,38 L1775.2,38 L1728.2,321 L1728.2,320 L1733.2,311 L1741.2,299 L1748.2,289 L1757.2,278 L1768.2,266 L1781.2,254 L1796.2,241 L1814.2,228 L1829.2,218 L1839.2,211 L1851.2,205 L1863.2,199 L1875.2,193 L1889.2,187 L1903.2,181 L1918.2,176 L1933.2,171 L1950.2,166 L1958.2,164 L2185.2,1042 L2002.2,1089 L2002.2,3243 L1586.2,3508 L1359.2,3508 L944.2,3243 M906.2,3264 L906.2,1157 L705.2,1106 L965.2,99 L1011.2,111 L1029.2,116 L1046.2,122 L1063.2,128 L1079.2,134 L1094.2,141 L1108.2,148 L1122.2,155 L1135.2,162 L1147.2,170 L1164.2,181 L1185.2,196 L1203.2,212 L1218.2,226 L1231.2,241 L1242.2,254 L1251.2,266 L1260.2,280 L1107.2,0 L1839.2,0 L1686.2,280 L1694.2,266 L1703.2,254 L1714.2,241 L1728.2,226 L1743.2,212 L1761.2,196 L1781.2,181 L1798.2,170 L1811.2,162 L1824.2,155 L1837.2,148 L1852.2,141 L1867.2,134 L1883.2,128 L1899.2,122 L1916.2,116 L1934.2,111 L1980.2,99 L2240.2,1106 L2040.2,1157 L2040.2,3264 L1597.2,3546 L1348.2,3546 L906.2,3264"/>
</g>

<g fill="none" stroke="#000000" stroke-opacity="1" stroke-width="1.51181" stroke-linecap="round" stroke-linejoin="round" transform="matrix(1,0,0,1,0,0)"
font-family="Arial" font-size="10.6667" font-weight="400" font-style="normal" 
>
</g>

<g fill="none" stroke="#000000" stroke-opacity="1" stroke-width="1.51181" stroke-linecap="round" stroke-linejoin="round" transform="matrix(1,0,0,1,0,0)"
font-family="Arial" font-size="10.6667" font-weight="400" font-style="normal" 
>
</g>

<g fill="none" stroke="#000000" stroke-opacity="1" stroke-width="1" stroke-linecap="square" stroke-linejoin="bevel" transform="matrix(1,0,0,1,0,0)"
font-family="Arial" font-size="10.6667" font-weight="400" font-style="normal" 
>
<path vector-effect="none" fill-rule="nonzero" d="M2009.18,3640.8 L2236.18,4774.8 L2236.18,5870.8 L2236.18,6701.8 L1178.18,6701.8 L1178.18,5870.8 L1178.18,4774.8 L1404.18,3640.8 L2009.18,3640.8 M1358.18,3583.8 L2055.18,3583.8 L2292.18,4768.8 L2292.18,5870.8 L2292.18,6758.8 L1121.18,6758.8 L1121.18,5870.8 L1121.18,4768.8 L1358.18,3583.8"/>
</g>

<g fill="none" stroke="#000000" stroke-opacity="1" stroke-width="1.51181" stroke-linecap="round" stroke-linejoin="round" transform="matrix(1,0,0,1,0,0)"
font-family="Arial" font-size="10.6667" font-weight="400" font-style="normal" 
>
</g>

<g fill="none" stroke="#000000" stroke-opacity="1" stroke-width="1.51181" stroke-linecap="round" stroke-linejoin="round" transform="matrix(1,0,0,1,0,0)"
font-family="Arial" font-size="10.6667" font-weight="400" font-style="normal" 
>
</g>

<g fill="none" stroke="#000000" stroke-opacity="1" stroke-width="1" stroke-linecap="square" stroke-linejoin="bevel" transform="matrix(1,0,0,1,0,0)"
font-family="Arial" font-size="10.6667" font-weight="400" font-style="normal" 
>
<path vector-effect="none" fill-rule="nonzero" d="M1250.63,3640.78 L1024.44,4774.74 L1024.27,5870.74 L1024.13,6701.74 L343.133,6701.63 L343.267,5870.63 L343.625,3640.63 L1250.63,3640.78 M268.634,3583.62 L1319.63,3583.79 L1080.44,4779.75 L1080.27,5870.75 L1080.12,6758.75 L268.124,6758.62 L268.267,5870.62 L268.634,3583.62"/>
</g>

<g fill="none" stroke="#000000" stroke-opacity="1" stroke-width="1.51181" stroke-linecap="round" stroke-linejoin="round" transform="matrix(1,0,0,1,0,0)"
font-family="Arial" font-size="10.6667" font-weight="400" font-style="normal" 
>
</g>

<g fill="none" stroke="#000000" stroke-opacity="1" stroke-width="1.51181" stroke-linecap="round" stroke-linejoin="round" transform="matrix(1,0,0,1,0,0)"
font-family="Arial" font-size="10.6667" font-weight="400" font-style="normal" 
>
</g>

<g fill="none" stroke="#000000" stroke-opacity="1" stroke-width="1" stroke-linecap="square" stroke-linejoin="bevel" transform="matrix(1,0,0,1,0,0)"
font-family="Arial" font-size="10.6667" font-weight="400" font-style="normal" 
>
<path vector-effect="none" fill-rule="nonzero" d="M1843.47,6872.59 L2092.47,8006.59 L928.468,8006.59 L1178.47,6872.59 L1843.47,6872.59 M1117.47,6796.59 L1904.47,6796.59 L2186.47,8081.59 L834.468,8081.59 L1117.47,6796.59"/>
</g>

<g fill="none" stroke="#000000" stroke-opacity="1" stroke-width="1.51181" stroke-linecap="round" stroke-linejoin="round" transform="matrix(1,0,0,1,0,0)"
font-family="Arial" font-size="10.6667" font-weight="400" font-style="normal" 
>
</g>

<g fill="none" stroke="#000000" stroke-opacity="1" stroke-width="1.51181" stroke-linecap="round" stroke-linejoin="round" transform="matrix(1,0,0,1,0,0)"
font-family="Arial" font-size="10.6667" font-weight="400" font-style="normal" 
>
</g>

<g fill="none" stroke="#000000" stroke-opacity="1" stroke-width="1" stroke-linecap="square" stroke-linejoin="bevel" transform="matrix(1,0,0,1,0,0)"
font-family="Arial" font-size="10.6667" font-weight="400" font-style="normal" 
>
<path vector-effect="none" fill-rule="nonzero" d="M866.854,8157.39 L1963.85,8157.39 L1698.85,8573.39 L1698.85,8800.39 L1963.85,9215.39 L866.854,9215.39 L866.854,8157.39 M829.854,9253.39 L829.854,8119.39 L2031.85,8119.39 L1736.85,8584.39 L1736.85,8789.39 L2031.85,9253.39 L829.854,9253.39"/>
</g>

<g fill="none" stroke="#000000" stroke-opacity="1" stroke-width="1.51181" stroke-linecap="round" stroke-linejoin="round" transform="matrix(1,0,0,1,0,0)"
font-family="Arial" font-size="10.6667" font-weight="400" font-style="normal" 
>
</g>

<g fill="none" stroke="#000000" stroke-opacity="1" stroke-width="1.51181" stroke-linecap="round" stroke-linejoin="round" transform="matrix(1,0,0,1,0,0)"
font-family="Arial" font-size="10.6667" font-weight="400" font-style="normal" 
>
</g>

<g fill="#000000" fill-opacity="1" stroke="#000000" stroke-opacity="1" stroke-width="1" stroke-linecap="square" stroke-linejoin="bevel" transform="matrix(1,0,0,1,0,0)"
font-family="Arial" font-size="10.6667" font-weight="400" font-style="normal" 
>
<path vector-effect="none" fill-rule="evenodd" d="M1530.76,8521.6 L1526.7,8521.6 L1526.7,8529.81 L1505.85,8529.81 L1505.85,8534.23 L1526.7,8534.23 L1526.7,8542.45 L1530.76,8542.45 L1530.76,8521.6 M1515.54,8550.39 C1515.54,8557.04 1516.87,8562.48 1523.38,8562.48 C1528.32,8562.48 1530.76,8559.03 1530.76,8552.15 L1530.76,8543.92 L1505.85,8543.92 L1505.85,8548.34 L1515.54,8548.34 L1515.54,8550.39 M1523.2,8557.95 C1519.85,8557.95 1519.6,8554.46 1519.6,8550.57 L1519.6,8548.34 L1526.7,8548.34 L1526.7,8551.68 C1526.7,8555 1526.26,8557.95 1523.2,8557.95 M1486.99,8459.57 L1483.38,8459.57 L1483.38,8466.87 L1464.85,8466.87 L1464.85,8470.81 L1483.38,8470.81 L1483.38,8478.1 L1486.99,8478.1 L1486.99,8459.57 M1464.54,8487.51 C1464.54,8492.37 1467.79,8495.57 1472.63,8495.57 C1477.43,8495.57 1480.6,8492.43 1480.6,8487.57 C1480.6,8482.65 1477.46,8479.51 1472.57,8479.51 C1467.76,8479.51 1464.54,8482.65 1464.54,8487.51 M1477.53,8487.51 C1477.53,8490.17 1475.32,8491.64 1472.57,8491.64 C1469.74,8491.64 1467.6,8490.26 1467.6,8487.51 C1467.6,8484.89 1469.84,8483.45 1472.57,8483.45 C1475.23,8483.45 1477.53,8484.89 1477.53,8487.51 M1456.57,8502.85 L1465.48,8502.85 C1464.85,8504.15 1464.53,8505.43 1464.53,8506.73 C1464.53,8511.34 1467.96,8514.06 1472.63,8514.06 C1477.31,8514.06 1480.6,8512.17 1480.6,8507.43 C1480.6,8505.35 1480.01,8503.67 1479.15,8502.2 L1480.24,8501.39 L1480.24,8498.92 L1456.57,8498.92 L1456.57,8502.85 M1476.56,8502.85 C1476.88,8503.64 1477.4,8505.1 1477.4,8506.46 C1477.4,8509.23 1475.42,8510.12 1472.4,8510.12 C1469.4,8510.12 1467.63,8508.71 1467.63,8506.09 C1467.63,8504.85 1467.96,8503.79 1468.65,8502.85 L1476.56,8502.85 M1473.46,8530.87 C1473.46,8536.79 1474.65,8541.62 1480.43,8541.62 C1484.82,8541.62 1486.99,8538.56 1486.99,8532.45 L1486.99,8525.12 L1464.85,8525.12 L1464.85,8529.06 L1473.46,8529.06 L1473.46,8530.87 M1480.28,8537.59 C1477.31,8537.59 1477.07,8534.5 1477.07,8531.04 L1477.07,8529.06 L1483.38,8529.06 L1483.38,8532.03 C1483.38,8534.96 1482.99,8537.59 1480.28,8537.59 M1464.54,8552.12 C1464.54,8556.98 1467.79,8560.18 1472.63,8560.18 C1477.43,8560.18 1480.6,8557.04 1480.6,8552.18 C1480.6,8547.26 1477.46,8544.12 1472.57,8544.12 C1467.76,8544.12 1464.54,8547.26 1464.54,8552.12 M1477.53,8552.12 C1477.53,8554.78 1475.32,8556.25 1472.57,8556.25 C1469.74,8556.25 1467.6,8554.87 1467.6,8552.12 C1467.6,8549.5 1469.84,8548.06 1472.57,8548.06 C1475.23,8548.06 1477.53,8549.5 1477.53,8552.12 M1472.57,8566.54 C1475.54,8566.54 1477.53,8568.29 1477.53,8571.65 C1477.53,8573.67 1477.04,8574.79 1476.67,8575.5 L1479.6,8576.26 C1480.09,8575.5 1480.6,8574.09 1480.6,8571.25 C1480.6,8565.96 1477.49,8562.6 1472.57,8562.6 C1467.76,8562.6 1464.54,8566.09 1464.54,8571.37 C1464.54,8573.81 1465.24,8575.79 1465.49,8576.32 L1468.43,8575.56 C1468.12,8574.89 1467.6,8573.67 1467.6,8571.65 C1467.6,8568.5 1469.65,8566.54 1472.57,8566.54 M1473.07,8583.62 L1487.82,8583.62 L1487.82,8579.68 L1464.85,8579.68 L1464.85,8583.62 L1467.93,8583.62 L1471.12,8586.53 L1464.85,8590.34 L1464.85,8594.92 L1473.98,8589.12 L1480.24,8594.56 L1480.24,8590 L1473.07,8583.62 M1467.63,8605.09 C1467.63,8601.31 1469.28,8600.48 1471.26,8600.31 L1471.26,8610.85 L1472.76,8610.85 C1477.78,8610.85 1480.6,8608.48 1480.6,8603.87 C1480.6,8599.29 1477.01,8596.32 1472.57,8596.32 C1467.57,8596.32 1464.54,8599.39 1464.54,8604.57 C1464.54,8606.62 1464.88,8608.6 1465.49,8610.5 L1468.43,8609.73 C1467.9,8608.32 1467.63,8606.78 1467.63,8605.09 M1473.98,8600.32 C1475.85,8600.54 1477.56,8601.32 1477.56,8603.93 C1477.56,8605.85 1476.43,8606.92 1473.98,8606.92 L1473.98,8600.32 M1465.4,8625.21 L1468.12,8624.64 C1467.96,8624.06 1467.67,8622.87 1467.67,8621.79 C1467.67,8619.67 1468.73,8619.2 1469.92,8619.2 L1477.17,8619.2 L1477.17,8624.51 L1480.24,8624.51 L1480.24,8619.2 L1485.07,8619.2 L1485.07,8615.26 L1480.24,8615.26 L1480.24,8612.7 L1477.17,8612.7 L1477.17,8615.26 L1469.81,8615.26 C1467.09,8615.26 1464.54,8615.93 1464.54,8620.82 C1464.54,8622.29 1464.98,8624.12 1465.4,8625.21 M1440.4,8464.14 C1444.84,8464.14 1446.62,8461.75 1446.62,8457.78 L1446.62,8450.2 L1425.85,8450.2 L1425.85,8452.68 L1434.4,8452.68 L1434.4,8457.78 C1434.4,8461.45 1435.6,8464.14 1440.4,8464.14 M1436.59,8456.95 L1436.59,8452.68 L1444.42,8452.68 L1444.42,8456.95 C1444.42,8459.67 1443.95,8461.62 1440.56,8461.62 C1437.01,8461.62 1436.59,8459.64 1436.59,8456.95 M1425.56,8475.39 C1425.56,8481.29 1429.31,8483.35 1434.2,8483.35 L1446.62,8483.35 L1446.62,8480.87 L1433.56,8480.87 C1430.74,8480.87 1427.74,8479.37 1427.74,8475.39 C1427.74,8471.39 1430.68,8469.89 1433.56,8469.89 L1446.62,8469.89 L1446.62,8467.43 L1434.2,8467.43 C1429.31,8467.43 1425.56,8469.48 1425.56,8475.39 M1433.06,8501.9 L1433.06,8499.26 L1446.62,8499.26 L1446.62,8495.51 L1432.54,8486.71 L1431.07,8486.71 L1431.07,8496.76 L1425.79,8496.76 L1425.79,8499.26 L1431.07,8499.26 L1431.07,8501.9 L1433.06,8501.9 M1433.06,8489.59 L1444.57,8496.76 L1433.06,8496.76 L1433.06,8489.59 M1447.03,8511.53 C1447.03,8506.57 1442.03,8504.26 1436.29,8504.26 C1430.56,8504.26 1425.56,8506.57 1425.56,8511.53 C1425.56,8516.42 1430.59,8518.6 1436.29,8518.6 C1442.12,8518.6 1447.03,8516.5 1447.03,8511.53 M1427.54,8511.46 C1427.54,8507.89 1431.85,8506.75 1436.29,8506.75 C1440.73,8506.75 1445.06,8507.89 1445.06,8511.46 C1445.06,8514.98 1440.73,8516.12 1436.29,8516.12 C1431.85,8516.12 1427.54,8514.98 1427.54,8511.46 M1447.03,8528.75 C1447.03,8523.79 1442.03,8521.48 1436.29,8521.48 C1430.56,8521.48 1425.56,8523.79 1425.56,8528.75 C1425.56,8533.64 1430.59,8535.82 1436.29,8535.82 C1442.12,8535.82 1447.03,8533.71 1447.03,8528.75 M1427.54,8528.68 C1427.54,8525.1 1431.85,8523.96 1436.29,8523.96 C1440.73,8523.96 1445.06,8525.1 1445.06,8528.68 C1445.06,8532.2 1440.73,8533.34 1436.29,8533.34 C1431.85,8533.34 1427.54,8532.2 1427.54,8528.68 M1447.03,8545.96 C1447.03,8541.01 1442.03,8538.7 1436.29,8538.7 C1430.56,8538.7 1425.56,8541.01 1425.56,8545.96 C1425.56,8550.85 1430.59,8553.04 1436.29,8553.04 C1442.12,8553.04 1447.03,8550.93 1447.03,8545.96 M1427.54,8545.9 C1427.54,8542.32 1431.85,8541.18 1436.29,8541.18 C1440.73,8541.18 1445.06,8542.32 1445.06,8545.9 C1445.06,8549.42 1440.73,8550.56 1436.29,8550.56 C1431.85,8550.56 1427.54,8549.42 1427.54,8545.9 M1429.15,8558.43 C1429.15,8557.35 1428.37,8556.6 1427.32,8556.6 C1426.45,8556.6 1425.85,8557 1425.56,8557.87 C1424.74,8557.48 1423.73,8556.96 1422.53,8556.28 L1421.9,8557.25 C1423.01,8558.56 1424.81,8560.32 1426.99,8560.32 C1428.23,8560.32 1429.15,8559.6 1429.15,8558.43 M1425.56,8578.85 C1425.56,8581.17 1426.28,8583.12 1426.7,8583.75 L1428.56,8583.03 C1428.31,8582.6 1427.54,8581.04 1427.54,8579.15 C1427.54,8576.12 1429.34,8574.53 1433.12,8574.53 C1436.71,8574.53 1438.7,8576.18 1438.7,8579.48 C1438.7,8580.71 1438.34,8581.82 1437.92,8582.76 L1439.78,8583.48 C1440.37,8582.06 1440.67,8580.56 1440.67,8579.15 C1440.67,8574.53 1437.65,8572.04 1433.12,8572.04 C1428.46,8572.04 1425.56,8574.48 1425.56,8578.85 M1431.17,8589.53 L1440.31,8589.53 L1440.31,8587.04 L1430.56,8587.04 C1427.51,8587.04 1425.56,8588.75 1425.56,8591.81 C1425.56,8593.37 1426.06,8595.06 1427.03,8596.92 L1425.85,8597.48 L1425.85,8599.2 L1440.31,8599.2 L1440.31,8596.7 L1428.73,8596.7 C1428.04,8595.23 1427.68,8593.92 1427.68,8592.71 C1427.68,8590.31 1428.73,8589.53 1431.17,8589.53 M1425.56,8607.59 C1425.56,8609.39 1425.82,8610.37 1426.21,8611.25 L1428.01,8610.73 C1427.84,8610.21 1427.62,8609.5 1427.62,8608.54 C1427.62,8606.85 1428.73,8606.56 1429.87,8606.56 L1438.34,8606.56 L1438.34,8610.7 L1440.31,8610.7 L1440.31,8606.56 L1444.37,8606.56 L1444.37,8604.07 L1440.31,8604.07 L1440.31,8601.64 L1438.34,8601.64 L1438.34,8604.07 L1429.01,8604.07 C1427.06,8604.07 1425.56,8604.96 1425.56,8607.59 M1446.62,8628.01 L1444.73,8623.57 L1443.04,8624.39 L1444.57,8628.37 L1427.84,8628.37 L1427.84,8622.82 L1425.85,8622.82 L1425.85,8635.87 L1427.84,8635.87 L1427.84,8630.85 L1446.62,8630.85 L1446.62,8628.01"/>
</g>

<g fill="none" stroke="#000000" stroke-opacity="1" stroke-width="1.51181" stroke-linecap="round" stroke-linejoin="round" transform="matrix(1,0,0,1,0,0)"
font-family="Arial" font-size="10.6667" font-weight="400" font-style="normal" 
>
</g>

<g fill="none" stroke="#000000" stroke-opacity="1" stroke-width="1.51181" stroke-linecap="round" stroke-linejoin="round" transform="matrix(1,0,0,1,0,0)"
font-family="Arial" font-size="10.6667" font-weight="400" font-style="normal" 
>
</g>

<g fill="none" stroke="#000000" stroke-opacity="1" stroke-width="1" stroke-linecap="square" stroke-linejoin="bevel" transform="matrix(1,0,0,1,0,0)"
font-family="Arial" font-size="10.6667" font-weight="400" font-style="normal" 
>
<path vector-effect="none" fill-rule="nonzero" d="M2064.6,10365.2 L930.597,10115.2 L1686.6,9367.18 L2064.6,9367.18 L2064.6,10365.2 M2140.6,9291.18 L2140.6,10459.2 L778.597,10159.2 L1655.6,9291.18 L2140.6,9291.18"/>
</g>

<g fill="none" stroke="#000000" stroke-opacity="1" stroke-width="1.51181" stroke-linecap="round" stroke-linejoin="round" transform="matrix(1,0,0,1,0,0)"
font-family="Arial" font-size="10.6667" font-weight="400" font-style="normal" 
>
</g>

<g fill="none" stroke="#000000" stroke-opacity="1" stroke-width="1.51181" stroke-linecap="round" stroke-linejoin="round" transform="matrix(1,0,0,1,0,0)"
font-family="Arial" font-size="10.6667" font-weight="400" font-style="normal" 
>
</g>

<g fill="none" stroke="#000000" stroke-opacity="1" stroke-width="1" stroke-linecap="square" stroke-linejoin="bevel" transform="matrix(1,0,0,1,0,0)"
font-family="Arial" font-size="10.6667" font-weight="400" font-style="normal" 
>
<path vector-effect="none" fill-rule="nonzero" d="M868.405,2286.6 L150.405,2286.6 L150.405,1228.6 L868.405,1228.6 L868.405,2286.6 M868.405,1190.6 L868.405,2324.6 L74.4047,2324.6 L74.4047,1190.6 L868.405,1190.6"/>
</g>

<g fill="none" stroke="#000000" stroke-opacity="1" stroke-width="1.51181" stroke-linecap="round" stroke-linejoin="round" transform="matrix(1,0,0,1,0,0)"
font-family="Arial" font-size="10.6667" font-weight="400" font-style="normal" 
>
</g>

<g fill="none" stroke="#000000" stroke-opacity="1" stroke-width="1.51181" stroke-linecap="round" stroke-linejoin="round" transform="matrix(1,0,0,1,0,0)"
font-family="Arial" font-size="10.6667" font-weight="400" font-style="normal" 
>
</g>

<g fill="none" stroke="#000000" stroke-opacity="1" stroke-dasharray="1,2" stroke-dashoffset="0" stroke-width="1" stroke-linecap="square" stroke-linejoin="bevel" transform="matrix(1,0,0,1,0,0)"
font-family="Arial" font-size="10.6667" font-weight="400" font-style="normal" 
>
<path vector-effect="none" fill-rule="nonzero" d="M338.903,1228.23 L603.47,1643.97 L603.47,1870.75 L338.903,2286.49"/>
</g>

<g fill="none" stroke="#000000" stroke-opacity="1" stroke-width="1.51181" stroke-linecap="round" stroke-linejoin="round" transform="matrix(1,0,0,1,0,0)"
font-family="Arial" font-size="10.6667" font-weight="400" font-style="normal" 
>
</g>

<g fill="none" stroke="#000000" stroke-opacity="1" stroke-width="1.51181" stroke-linecap="round" stroke-linejoin="round" transform="matrix(1,0,0,1,0,0)"
font-family="Arial" font-size="10.6667" font-weight="400" font-style="normal" 
>
</g>

<g fill="none" stroke="#000000" stroke-opacity="1" stroke-width="1" stroke-linecap="square" stroke-linejoin="bevel" transform="matrix(1,0,0,1,0,0)"
font-family="Arial" font-size="10.6667" font-weight="400" font-style="normal" 
>
<path vector-effect="none" fill-rule="nonzero" d="M755.058,8547.98 L755.058,9605.98 L188.058,9605.98 L188.058,8547.98 L755.058,8547.98 M188.058,8509.98 L792.058,8509.98 L792.058,9643.98 L188.058,9643.98 L188.058,8509.98"/>
</g>

<g fill="none" stroke="#000000" stroke-opacity="1" stroke-width="1.51181" stroke-linecap="round" stroke-linejoin="round" transform="matrix(1,0,0,1,0,0)"
font-family="Arial" font-size="10.6667" font-weight="400" font-style="normal" 
>
</g>

<g fill="none" stroke="#000000" stroke-opacity="1" stroke-width="1.51181" stroke-linecap="round" stroke-linejoin="round" transform="matrix(1,0,0,1,0,0)"
font-family="Arial" font-size="10.6667" font-weight="400" font-style="normal" 
>
</g>

<g fill="#000000" fill-opacity="1" stroke="#000000" stroke-opacity="1" stroke-width="1" stroke-linecap="square" stroke-linejoin="bevel" transform="matrix(1,0,0,1,0,0)"
font-family="Arial" font-size="10.6667" font-weight="400" font-style="normal" 
>
<path vector-effect="none" fill-rule="evenodd" d="M203.652,9220.77 L207.715,9220.77 L207.715,9212.56 L228.558,9212.56 L228.558,9208.14 L207.715,9208.14 L207.715,9199.92 L203.652,9199.92 L203.652,9220.77 M207.715,9192.77 L207.715,9181.08 L203.652,9181.08 L203.652,9197.2 L228.558,9197.2 L228.558,9192.77 L219.09,9192.77 L219.09,9182.52 L215.027,9182.52 L215.027,9192.77 L207.715,9192.77 M247.418,9273.3 L251.027,9273.3 L251.027,9266 L269.558,9266 L269.558,9262.06 L251.027,9262.06 L251.027,9254.77 L247.418,9254.77 L247.418,9273.3 M269.871,9245.36 C269.871,9240.5 266.621,9237.3 261.777,9237.3 C256.98,9237.3 253.808,9240.44 253.808,9245.3 C253.808,9250.22 256.949,9253.36 261.84,9253.36 C266.652,9253.36 269.871,9250.22 269.871,9245.36 M256.886,9245.36 C256.886,9242.7 259.09,9241.23 261.84,9241.23 C264.668,9241.23 266.808,9242.61 266.808,9245.36 C266.808,9247.98 264.574,9249.42 261.84,9249.42 C259.183,9249.42 256.886,9247.98 256.886,9245.36 M277.84,9230.02 L268.933,9230.02 C269.558,9228.72 269.886,9227.44 269.886,9226.14 C269.886,9221.53 266.449,9218.81 261.777,9218.81 C257.105,9218.81 253.808,9220.7 253.808,9225.44 C253.808,9227.52 254.402,9229.2 255.261,9230.67 L254.168,9231.48 L254.168,9233.95 L277.84,9233.95 L277.84,9230.02 M257.855,9230.02 C257.527,9229.23 257.011,9227.77 257.011,9226.41 C257.011,9223.64 258.996,9222.75 262.011,9222.75 C265.011,9222.75 266.777,9224.16 266.777,9226.78 C266.777,9228.02 266.449,9229.08 265.761,9230.02 L257.855,9230.02 M251.027,9202.7 L251.027,9192.3 L247.418,9192.3 L247.418,9206.64 L269.558,9206.64 L269.558,9202.7 L261.136,9202.7 L261.136,9193.58 L257.527,9193.58 L257.527,9202.7 L251.027,9202.7 M254.168,9189.08 L269.558,9189.08 L269.558,9185.23 L258.355,9185.23 C257.59,9184.34 257.168,9183.37 257.168,9182.36 C257.168,9181.36 257.527,9180.05 258.105,9179.19 L254.418,9178.39 C254.011,9179.28 253.808,9180.25 253.808,9181.23 C253.808,9182.87 254.48,9184.41 255.793,9185.84 L254.168,9186.33 L254.168,9189.08 M269.871,9168.98 C269.871,9164.12 266.621,9160.92 261.777,9160.92 C256.98,9160.92 253.808,9164.06 253.808,9168.92 C253.808,9173.84 256.949,9176.98 261.84,9176.98 C266.652,9176.98 269.871,9173.84 269.871,9168.98 M256.886,9168.98 C256.886,9166.33 259.09,9164.86 261.84,9164.86 C264.668,9164.86 266.808,9166.23 266.808,9168.98 C266.808,9171.61 264.574,9173.05 261.84,9173.05 C259.183,9173.05 256.886,9171.61 256.886,9168.98 M260.699,9143.3 C256.496,9143.3 253.808,9144.58 253.808,9148.97 C253.808,9150.7 254.261,9152.48 255.152,9154.28 L254.168,9154.86 L254.168,9157.61 L269.558,9157.61 L269.558,9153.67 L257.886,9153.67 C257.308,9152.11 257.011,9150.89 257.011,9149.98 C257.011,9148.08 258.355,9147.23 260.215,9147.23 L269.558,9147.23 L269.558,9143.3 L260.699,9143.3 M269.011,9128.17 L266.293,9128.75 C266.449,9129.33 266.746,9130.52 266.746,9131.59 C266.746,9133.72 265.683,9134.19 264.496,9134.19 L257.246,9134.19 L257.246,9128.87 L254.168,9128.87 L254.168,9134.19 L249.34,9134.19 L249.34,9138.12 L254.168,9138.12 L254.168,9140.69 L257.246,9140.69 L257.246,9138.12 L264.605,9138.12 C267.324,9138.12 269.871,9137.45 269.871,9132.56 C269.871,9131.09 269.433,9129.27 269.011,9128.17 M294.011,9279.23 C289.574,9279.23 287.793,9281.62 287.793,9285.59 L287.793,9293.17 L308.558,9293.17 L308.558,9290.69 L300.011,9290.69 L300.011,9285.59 C300.011,9281.92 298.808,9279.23 294.011,9279.23 M297.824,9286.42 L297.824,9290.69 L289.996,9290.69 L289.996,9286.42 C289.996,9283.7 290.465,9281.75 293.855,9281.75 C297.402,9281.75 297.824,9283.73 297.824,9286.42 M308.855,9267.98 C308.855,9262.08 305.105,9260.02 300.215,9260.02 L287.793,9260.02 L287.793,9262.5 L300.855,9262.5 C303.668,9262.5 306.668,9264 306.668,9267.98 C306.668,9271.98 303.73,9273.48 300.855,9273.48 L287.793,9273.48 L287.793,9275.94 L300.215,9275.94 C305.105,9275.94 308.855,9273.89 308.855,9267.98 M301.355,9241.47 L301.355,9244.11 L287.793,9244.11 L287.793,9247.86 L301.871,9256.66 L303.34,9256.66 L303.34,9246.61 L308.621,9246.61 L308.621,9244.11 L303.34,9244.11 L303.34,9241.47 L301.355,9241.47 M301.355,9253.78 L289.84,9246.61 L301.355,9246.61 L301.355,9253.78 M287.386,9231.84 C287.386,9236.8 292.386,9239.11 298.121,9239.11 C303.855,9239.11 308.855,9236.8 308.855,9231.84 C308.855,9226.95 303.824,9224.77 298.121,9224.77 C292.293,9224.77 287.386,9226.87 287.386,9231.84 M306.871,9231.91 C306.871,9235.48 302.558,9236.62 298.121,9236.62 C293.683,9236.62 289.355,9235.48 289.355,9231.91 C289.355,9228.39 293.683,9227.25 298.121,9227.25 C302.558,9227.25 306.871,9228.39 306.871,9231.91 M287.386,9214.62 C287.386,9219.58 292.386,9221.89 298.121,9221.89 C303.855,9221.89 308.855,9219.58 308.855,9214.62 C308.855,9209.73 303.824,9207.55 298.121,9207.55 C292.293,9207.55 287.386,9209.66 287.386,9214.62 M306.871,9214.69 C306.871,9218.27 302.558,9219.41 298.121,9219.41 C293.683,9219.41 289.355,9218.27 289.355,9214.69 C289.355,9211.17 293.683,9210.03 298.121,9210.03 C302.558,9210.03 306.871,9211.17 306.871,9214.69 M287.386,9197.41 C287.386,9202.36 292.386,9204.67 298.121,9204.67 C303.855,9204.67 308.855,9202.36 308.855,9197.41 C308.855,9192.52 303.824,9190.33 298.121,9190.33 C292.293,9190.33 287.386,9192.44 287.386,9197.41 M306.871,9197.47 C306.871,9201.05 302.558,9202.19 298.121,9202.19 C293.683,9202.19 289.355,9201.05 289.355,9197.47 C289.355,9193.95 293.683,9192.81 298.121,9192.81 C302.558,9192.81 306.871,9193.95 306.871,9197.47 M305.261,9184.94 C305.261,9186.02 306.043,9186.77 307.09,9186.77 C307.965,9186.77 308.558,9186.37 308.855,9185.5 C309.668,9185.89 310.683,9186.41 311.886,9187.09 L312.511,9186.12 C311.402,9184.81 309.605,9183.05 307.418,9183.05 C306.183,9183.05 305.261,9183.77 305.261,9184.94 M308.855,9164.52 C308.855,9162.2 308.136,9160.25 307.715,9159.62 L305.855,9160.34 C306.105,9160.77 306.871,9162.33 306.871,9164.22 C306.871,9167.25 305.074,9168.84 301.293,9168.84 C297.699,9168.84 295.715,9167.19 295.715,9163.89 C295.715,9162.66 296.074,9161.55 296.496,9160.61 L294.636,9159.89 C294.043,9161.31 293.746,9162.81 293.746,9164.22 C293.746,9168.84 296.761,9171.33 301.293,9171.33 C305.949,9171.33 308.855,9168.89 308.855,9164.52 M303.246,9153.84 L294.105,9153.84 L294.105,9156.33 L303.855,9156.33 C306.902,9156.33 308.855,9154.62 308.855,9151.56 C308.855,9150 308.355,9148.31 307.386,9146.45 L308.558,9145.89 L308.558,9144.17 L294.105,9144.17 L294.105,9146.67 L305.683,9146.67 C306.371,9148.14 306.73,9149.45 306.73,9150.66 C306.73,9153.06 305.683,9153.84 303.246,9153.84 M308.855,9135.78 C308.855,9133.98 308.59,9133 308.199,9132.12 L306.402,9132.64 C306.574,9133.16 306.793,9133.87 306.793,9134.83 C306.793,9136.52 305.683,9136.81 304.543,9136.81 L296.074,9136.81 L296.074,9132.67 L294.105,9132.67 L294.105,9136.81 L290.043,9136.81 L290.043,9139.3 L294.105,9139.3 L294.105,9141.73 L296.074,9141.73 L296.074,9139.3 L305.402,9139.3 C307.355,9139.3 308.855,9138.41 308.855,9135.78 M287.793,9115.36 L289.683,9119.8 L291.371,9118.98 L289.84,9115 L306.574,9115 L306.574,9120.55 L308.558,9120.55 L308.558,9107.5 L306.574,9107.5 L306.574,9112.52 L287.793,9112.52 L287.793,9115.36"/>
</g>

<g fill="none" stroke="#000000" stroke-opacity="1" stroke-width="1.51181" stroke-linecap="round" stroke-linejoin="round" transform="matrix(1,0,0,1,0,0)"
font-family="Arial" font-size="10.6667" font-weight="400" font-style="normal" 
>
</g>

<g fill="none" stroke="#000000" stroke-opacity="1" stroke-width="1.51181" stroke-linecap="round" stroke-linejoin="round" transform="matrix(1,0,0,1,0,0)"
font-family="Arial" font-size="10.6667" font-weight="400" font-style="normal" 
>
</g>

<g fill="none" stroke="#000000" stroke-opacity="1" stroke-width="1" stroke-linecap="square" stroke-linejoin="bevel" transform="matrix(1,0,0,1,0,0)"
font-family="Arial" font-size="10.6667" font-weight="400" font-style="normal" 
>
<path vector-effect="none" fill-rule="nonzero" d="M751.011,7462.5 L574.021,7397.47 L432.029,7345.44 L325.054,7193.43 L325.109,6853.43 L703.109,6853.49 L703.078,7042.49 L881.068,7107.52 L751.011,7462.5 M953.073,7073.53 L784.999,7534.5 L554.013,7450.46 L395.022,7393.44 L268.051,7211.42 L268.118,6796.42 L760.118,6796.5 L760.085,7002.5 L953.073,7073.53"/>
</g>

<g fill="none" stroke="#000000" stroke-opacity="1" stroke-width="1.51181" stroke-linecap="round" stroke-linejoin="round" transform="matrix(1,0,0,1,0,0)"
font-family="Arial" font-size="10.6667" font-weight="400" font-style="normal" 
>
</g>

<g fill="none" stroke="#000000" stroke-opacity="1" stroke-width="1.51181" stroke-linecap="round" stroke-linejoin="round" transform="matrix(1,0,0,1,0,0)"
font-family="Arial" font-size="10.6667" font-weight="400" font-style="normal" 
>
</g>

<g fill="#000000" fill-opacity="1" stroke="#000000" stroke-opacity="1" stroke-width="1" stroke-linecap="square" stroke-linejoin="bevel" transform="matrix(1,0,0,1,0,0)"
font-family="Arial" font-size="10.6667" font-weight="400" font-style="normal" 
>
<path vector-effect="none" fill-rule="evenodd" d="M511.953,7142.08 L511.955,7131.36 L508.22,7131.36 L508.218,7146.14 L531.061,7146.15 L531.062,7142.09 L522.375,7142.08 L522.376,7132.68 L518.657,7132.68 L518.656,7142.08 L511.953,7142.08 M552.257,7191.87 L552.259,7182.43 L548.978,7182.43 L548.975,7195.43 L569.054,7195.43 L569.054,7191.87 L561.429,7191.87 L561.43,7183.61 L558.149,7183.61 L558.148,7191.87 L552.257,7191.87 M565.745,7171.92 C566.213,7172.67 566.557,7173.51 566.557,7174.79 C566.557,7176.08 566.072,7177.11 564.916,7177.11 C562.963,7177.11 562.963,7174.06 562.964,7171.92 L565.745,7171.92 M560.495,7171.92 C560.494,7176.21 560.9,7180.68 565.165,7180.68 C567.837,7180.68 569.353,7178.45 569.354,7175.67 C569.354,7174.03 568.917,7172.67 568.104,7171.58 L569.057,7171.14 L569.058,7168.36 L560.449,7168.36 C556.417,7168.35 554.792,7170.42 554.791,7174.76 C554.791,7176.59 555.212,7178.9 555.681,7179.6 L558.353,7178.9 C557.853,7178.01 557.432,7176.42 557.432,7175.31 C557.432,7172.67 558.042,7171.92 560.495,7171.92 M566.559,7160.93 C566.559,7162.95 566.152,7164.31 565.808,7165.23 L568.511,7165.84 C568.949,7164.79 569.356,7163.03 569.356,7160.56 C569.357,7156.45 568.076,7154.12 565.326,7154.12 C560.076,7154.12 561.231,7162.01 559.137,7162.01 C558.09,7162.01 557.575,7160.56 557.575,7159.31 C557.575,7157.1 558.044,7156.12 558.498,7155.17 L555.779,7154.35 C555.279,7155.4 554.794,7156.65 554.794,7159.37 C554.793,7161.26 555.34,7165.57 558.996,7165.57 C564.246,7165.57 562.935,7157.7 565.122,7157.7 C566.278,7157.7 566.559,7159.34 566.559,7160.93 M568.562,7141.2 L566.109,7141.72 C566.25,7142.25 566.515,7143.33 566.515,7144.31 C566.515,7146.22 565.546,7146.65 564.483,7146.65 L557.89,7146.65 L557.89,7141.84 L555.109,7141.84 L555.108,7146.65 L550.733,7146.65 L550.733,7150.21 L555.108,7150.21 L555.107,7152.54 L557.889,7152.54 L557.889,7150.21 L564.561,7150.22 C567.03,7150.22 569.358,7149.61 569.359,7145.17 C569.359,7143.84 568.953,7142.18 568.562,7141.2 M566.533,7131.39 C566.532,7134.81 565.063,7135.56 563.266,7135.73 L563.268,7126.17 L561.893,7126.17 C557.346,7126.17 554.799,7128.31 554.798,7132.48 C554.797,7136.64 558.047,7139.32 562.078,7139.32 C566.594,7139.33 569.36,7136.54 569.361,7131.84 C569.361,7130 569.033,7128.2 568.487,7126.48 L565.815,7127.18 C566.314,7128.45 566.533,7129.84 566.533,7131.39 M560.798,7135.7 C559.094,7135.51 557.548,7134.81 557.548,7132.43 C557.548,7130.68 558.564,7129.73 560.799,7129.73 L560.798,7135.7 M561.036,7110.2 C557.239,7110.2 554.801,7111.35 554.801,7115.32 C554.801,7116.89 555.207,7118.51 556.019,7120.14 L555.112,7120.67 L555.112,7123.15 L569.065,7123.15 L569.066,7119.59 L558.472,7119.59 C557.957,7118.17 557.691,7117.07 557.691,7116.26 C557.692,7114.51 558.91,7113.76 560.598,7113.76 L569.067,7113.76 L569.067,7110.2 L561.036,7110.2 M566.538,7099.36 C566.537,7102.78 565.068,7103.53 563.271,7103.7 L563.273,7094.14 L561.898,7094.14 C557.351,7094.14 554.804,7096.28 554.803,7100.45 C554.803,7104.6 558.052,7107.29 562.083,7107.29 C566.599,7107.29 569.365,7104.51 569.366,7099.81 C569.366,7097.97 569.038,7096.17 568.492,7094.45 L565.82,7095.15 C566.319,7096.42 566.538,7097.81 566.538,7099.36 M560.803,7103.67 C559.1,7103.48 557.553,7102.78 557.553,7100.4 C557.554,7098.65 558.569,7097.7 560.804,7097.7 L560.803,7103.67 M555.117,7091.12 L569.07,7091.12 L569.071,7087.65 L558.915,7087.65 C558.227,7086.84 557.852,7085.96 557.853,7085.04 C557.853,7084.14 558.165,7082.95 558.681,7082.17 L555.353,7081.43 C554.978,7082.25 554.806,7083.12 554.806,7084.03 C554.806,7085.5 555.415,7086.89 556.602,7088.2 L555.118,7088.64 L555.117,7091.12 M585.375,7237.69 L587.344,7237.69 L587.345,7231.45 L604.048,7231.46 L604.048,7229.21 L587.345,7229.2 L587.346,7222.95 L585.377,7222.95 L585.375,7237.69 M596.378,7219.06 C594.331,7219.06 592.503,7217.63 592.503,7215.5 C592.504,7213.13 594.113,7212.31 596.379,7212.31 L596.378,7219.06 M602.535,7214.71 C602.534,7217.89 600.534,7219.11 598.159,7219.11 L598.161,7210.06 L596.379,7210.06 C592.879,7210.06 590.723,7212.13 590.722,7215.47 C590.722,7219.33 593.659,7221.38 597.518,7221.38 C601.862,7221.38 604.315,7219.11 604.316,7214.99 C604.316,7212.74 603.723,7210.83 603.301,7210.28 L601.629,7210.94 C601.895,7211.25 602.535,7212.96 602.535,7214.71 M595.678,7198.17 L604.053,7198.17 L604.053,7195.94 L595.147,7195.94 C592.366,7195.94 590.694,7197.42 590.693,7200.2 C590.693,7201.7 591.13,7203.28 591.99,7204.84 L591.036,7205.33 L591.036,7206.86 L604.052,7206.86 L604.052,7204.63 L593.505,7204.63 C592.88,7203.33 592.584,7202.11 592.584,7201.02 C592.584,7198.88 593.506,7198.17 595.678,7198.17 M604.32,7188.39 C604.321,7186.77 604.086,7185.88 603.727,7185.1 L602.118,7185.55 C602.274,7186 602.461,7186.66 602.461,7187.52 C602.461,7189.03 601.461,7189.3 600.445,7189.3 L592.82,7189.3 L592.821,7185.58 L591.04,7185.58 L591.039,7189.3 L587.398,7189.3 L587.398,7191.55 L591.039,7191.55 L591.038,7193.74 L592.819,7193.74 L592.82,7191.55 L601.226,7191.55 C602.976,7191.55 604.32,7190.74 604.32,7188.39 M587.354,7172.61 L587.355,7164.03 L585.387,7164.03 L585.385,7174.84 L604.057,7174.85 L604.057,7172.61 L595.385,7172.61 L595.387,7164.81 L593.418,7164.81 L593.417,7172.61 L587.354,7172.61 M602.466,7157.19 C602.466,7158.63 601.528,7158.67 600.45,7158.67 L584.684,7158.67 L584.684,7160.92 L601.231,7160.92 C603.059,7160.92 604.325,7159.57 604.325,7157.49 C604.325,7156.82 604.2,7156.33 604.091,7156.07 L602.388,7156.49 C602.435,7156.71 602.466,7156.89 602.466,7157.19 M604.311,7148.46 C604.312,7144.44 601.5,7142.07 597.468,7142.06 C593.375,7142.06 590.734,7144.27 590.733,7148.34 C590.732,7152.42 593.419,7154.77 597.529,7154.77 C601.576,7154.77 604.31,7152.5 604.311,7148.46 M592.514,7148.34 C592.515,7145.7 594.859,7144.3 597.531,7144.3 C600.249,7144.3 602.53,7145.67 602.53,7148.35 C602.529,7151.1 600.31,7152.53 597.529,7152.53 C594.795,7152.53 592.514,7151.09 592.514,7148.34 M604.314,7133.16 C604.314,7129.14 601.502,7126.77 597.471,7126.77 C593.377,7126.77 590.736,7128.97 590.735,7133.05 C590.735,7137.13 593.422,7139.47 597.531,7139.47 C601.578,7139.47 604.313,7137.21 604.314,7133.16 M592.517,7133.05 C592.517,7130.41 594.861,7129 597.533,7129 C600.252,7129 602.533,7130.38 602.532,7133.05 C602.532,7135.8 600.313,7137.24 597.532,7137.24 C594.797,7137.24 592.516,7135.8 592.517,7133.05 M592.832,7116.45 L590.816,7116 C590.738,7116.42 590.707,7116.67 590.707,7117.42 C590.706,7119.02 591.331,7120.2 592.706,7121.53 L591.05,7122.02 L591.05,7123.55 L604.065,7123.55 L604.065,7121.32 L594.425,7121.31 C593.675,7120.72 592.597,7119.3 592.597,7117.97 C592.597,7117.34 592.707,7116.86 592.832,7116.45 M601.098,7112.17 C601.098,7113.14 601.801,7113.82 602.739,7113.82 C603.52,7113.82 604.067,7113.47 604.333,7112.69 C605.067,7113.03 605.989,7113.5 607.067,7114.11 L607.629,7113.25 C606.629,7112.07 605.005,7110.47 603.036,7110.47 C601.942,7110.47 601.098,7111.13 601.098,7112.17 M604.336,7093.82 C604.336,7091.74 603.696,7089.99 603.321,7089.41 L601.649,7090.07 C601.852,7090.44 602.555,7091.85 602.554,7093.55 C602.554,7096.27 600.944,7097.71 597.538,7097.71 C594.304,7097.7 592.523,7096.22 592.523,7093.25 C592.523,7092.14 592.836,7091.14 593.227,7090.3 L591.539,7089.66 C591.008,7090.92 590.742,7092.28 590.742,7093.55 C590.741,7097.7 593.46,7099.94 597.538,7099.94 C601.725,7099.94 604.335,7097.75 604.336,7093.82 M599.29,7084.22 L591.056,7084.22 L591.055,7086.45 L599.837,7086.46 C602.587,7086.46 604.337,7084.92 604.337,7082.16 C604.338,7080.75 603.885,7079.25 603.026,7077.58 L604.073,7077.07 L604.073,7075.52 L591.057,7075.52 L591.057,7077.77 L601.479,7077.77 C602.104,7079.08 602.431,7080.27 602.431,7081.35 C602.431,7083.52 601.478,7084.22 599.29,7084.22 M604.34,7067.97 C604.34,7066.35 604.106,7065.46 603.746,7064.67 L602.137,7065.13 C602.293,7065.58 602.481,7066.24 602.48,7067.1 C602.48,7068.61 601.48,7068.88 600.465,7068.88 L592.84,7068.88 L592.84,7065.16 L591.059,7065.16 L591.058,7068.88 L587.418,7068.88 L587.417,7071.13 L591.058,7071.13 L591.058,7073.31 L592.839,7073.31 L592.839,7071.13 L601.245,7071.13 C602.995,7071.13 604.339,7070.32 604.34,7067.97 M586.857,7054.59 L588.373,7053.7 C587.608,7052.56 586.795,7051.33 586.796,7049.38 C586.796,7047.11 588.015,7045.52 590.421,7045.52 C593.093,7045.52 595.468,7047.63 602.811,7054.16 L604.076,7054.16 L604.078,7043.1 L602.297,7043.1 L602.296,7051.03 C594.953,7044.58 593.016,7043.28 590.422,7043.28 C587.156,7043.28 585.015,7045.73 585.015,7049.03 C585.014,7051.67 585.748,7052.83 586.857,7054.59 "/>
</g>

<g fill="none" stroke="#000000" stroke-opacity="1" stroke-width="1.51181" stroke-linecap="round" stroke-linejoin="round" transform="matrix(1,0,0,1,0,0)"
font-family="Arial" font-size="10.6667" font-weight="400" font-style="normal" 
>
</g>

<g fill="none" stroke="#000000" stroke-opacity="1" stroke-width="1.51181" stroke-linecap="round" stroke-linejoin="round" transform="matrix(1,0,0,1,0,0)"
font-family="Arial" font-size="10.6667" font-weight="400" font-style="normal" 
>
</g>

<g fill="none" stroke="#000000" stroke-opacity="1" stroke-width="1" stroke-linecap="square" stroke-linejoin="bevel" transform="matrix(1,0,0,1,0,0)"
font-family="Arial" font-size="10.6667" font-weight="400" font-style="normal" 
>
<path vector-effect="none" fill-rule="nonzero" d="M712.116,3468.26 L704.173,3469.21 L683.084,3469.72 L661.003,3470.35 L639.795,3469.87 L618.468,3468.4 L597.022,3465.93 L576.45,3462.36 L555.641,3456.79 L534.831,3451.23 L514.895,3444.55 L494.84,3436.89 L474.666,3428.22 L456.359,3418.33 L436.94,3407.57 L419.507,3396.56 L401.836,3383.57 L392.941,3376.58 L384.165,3370.58 L368.361,3356.36 L352.437,3341.15 L337.507,3325.82 L323.45,3309.37 L310.268,3291.82 L298.197,3275.13 L286.881,3256.35 L276.677,3238.43 L267.228,3218.42 L258.891,3199.27 L250.435,3179.14 L243.965,3158.76 L238.488,3138.27 L233.884,3116.66 L230.393,3095.93 L229.084,3085.01 L227.775,3074.09 L226.15,3052.12 L225.637,3031.03 L226.117,3009.83 L227.59,2988.5 L231.049,2966.93 L234.507,2945.37 L239.078,2924.68 L244.76,2904.86 L251.317,2883.93 L258.985,2863.88 L267.765,2844.7 L277.538,2825.4 L288.423,2806.97 L300.301,2788.43 L312.298,2770.87 L319.289,2761.98 L324.651,2756.3 L335.257,2743.95 L345.863,2731.6 L356.588,2720.24 L360.203,2716.79 L712.116,3468.26 M384.29,2590.02 L824.42,3531.34 L711.111,3543.91 L686.17,3545.89 L660.99,3545.89 L635.811,3545.89 L610.394,3543.9 L585.85,3540.79 L561.069,3535.71 L537.28,3530.5 L512.261,3523.43 L489.228,3516.12 L465.956,3506.82 L442.565,3496.53 L420.049,3485.13 L398.406,3472.61 L376.644,3459.11 L356.75,3444.37 L345.75,3436.62 L335.743,3428.76 L316.603,3411.92 L298.337,3393.96 L281.064,3375.89 L264.664,3356.7 L250.251,3337.28 L235.719,3316.86 L222.06,3295.34 L209.394,3273.69 L198.596,3250.81 L188.79,3227.82 L179.977,3204.7 L172.037,3180.47 L165.091,3156.13 L159.138,3131.66 L155.17,3106.96 L153.624,3094.05 L152.077,3081.14 L150.095,3056.2 L150.099,3031.02 L151.096,3005.72 L153.086,2980.31 L156.188,2955.76 L160.282,2931.1 L165.37,2906.32 L172.562,2882.29 L180.747,2858.15 L190.044,2834.88 L199.46,2812.6 L210.862,2790.08 L223.376,2768.44 L236.883,2746.68 L251.501,2725.79 L259.366,2715.78 L265.484,2708 L277.837,2693.42 L290.31,2679.84 L303.776,2666.14 L384.29,2590.02"/>
</g>

<g fill="none" stroke="#000000" stroke-opacity="1" stroke-width="1.51181" stroke-linecap="round" stroke-linejoin="round" transform="matrix(1,0,0,1,0,0)"
font-family="Arial" font-size="10.6667" font-weight="400" font-style="normal" 
>
</g>

<g fill="none" stroke="#000000" stroke-opacity="1" stroke-width="1.51181" stroke-linecap="round" stroke-linejoin="round" transform="matrix(1,0,0,1,0,0)"
font-family="Arial" font-size="10.6667" font-weight="400" font-style="normal" 
>
</g>
</g>
</svg>
